<?xml version="1.0" standalone="no"?><svg xmlns="http://www.w3.org/2000/svg" viewBox="0 0 1440 320"><path fill="#0099ff" fill-opacity="1" d="M0,288L24,282.7C48,277,96,267,144,250.7C192,235,240,213,288,213.3C336,213,384,235,432,250.7C480,267,528,277,576,272C624,267,672,245,720,245.3C768,245,816,267,864,256C912,245,960,203,1008,202.7C1056,203,1104,245,1152,261.3C1200,277,1248,267,1296,250.7C1344,235,1392,213,1416,202.7L1440,192L1440,320L1416,320C1392,320,1344,320,1296,320C1248,320,1200,320,1152,320C1104,320,1056,320,1008,320C960,320,912,320,864,320C816,320,768,320,720,320C672,320,624,320,576,320C528,320,480,320,432,320C384,320,336,320,288,320C240,320,192,320,144,320C96,320,48,320,24,320L0,320Z"></path></svg>